<svg width="44" height="44" viewBox="0 0 44 44" fill="none" xmlns="http://www.w3.org/2000/svg">
<path d="M22 10.0833C23.7018 10.0833 25.334 10.7594 26.5373 11.9627C27.7407 13.1661 28.4167 14.7982 28.4167 16.5C28.4167 18.2018 27.7407 19.8339 26.5373 21.0372C25.334 22.2406 23.7018 22.9166 22 22.9166C20.2982 22.9166 18.6661 22.2406 17.4628 21.0372C16.2594 19.8339 15.5834 18.2018 15.5834 16.5C15.5834 14.7982 16.2594 13.1661 17.4628 11.9627C18.6661 10.7594 20.2982 10.0833 22 10.0833ZM10.0834 33.4583C10.0834 29.6633 15.4184 26.5833 22 26.5833C28.5817 26.5833 33.9167 29.6633 33.9167 33.4583V36.6666H10.0834V33.4583Z" fill="#237D96"/>
<path d="M11.9717 15.4367C11.1467 14.9417 10.1933 14.6667 9.16667 14.6667C7.70798 14.6667 6.30903 15.2461 5.27758 16.2776C4.24613 17.309 3.66667 18.708 3.66667 20.1667C3.66667 21.6254 4.24613 23.0243 5.27758 24.0558C6.30903 25.0872 7.70798 25.6667 9.16667 25.6667C11.2933 25.6667 13.1267 24.4567 14.0433 22.6967C12.4667 20.6617 11.6967 18.0584 11.9717 15.4367Z" fill="#E5CC41"/>
<path d="M0 33.9167V36.6667H6.41667V33.4584C6.41667 31.57 7.07667 29.8467 8.15833 28.6C3.465 29.2234 0 31.3684 0 33.9167Z" fill="#E5CC41"/>
<path d="M38.7225 16.2776C37.6911 15.2461 36.2921 14.6667 34.8335 14.6667C33.8068 14.6667 32.8535 14.9417 32.0285 15.4367C32.2964 18.033 31.5545 20.6328 29.9568 22.6967C30.8735 24.4567 32.7068 25.6667 34.8335 25.6667C36.2921 25.6667 37.6911 25.0872 38.7225 24.0558C39.754 23.0243 40.3335 21.6254 40.3335 20.1667C40.3335 18.708 39.754 17.309 38.7225 16.2776Z" fill="#E5CC41"/>
<path d="M37.5835 36.6667H44.0001V33.9167C44.0001 31.3684 40.5351 29.2234 35.8418 28.6C36.9235 29.8467 37.5835 31.57 37.5835 33.4584V36.6667Z" fill="#E5CC41"/>
</svg>
