<svg width="45" height="44" viewBox="0 0 45 44" fill="none" xmlns="http://www.w3.org/2000/svg">
<path d="M22.3334 11C21.5817 12.1367 20.9584 13.365 20.5734 14.6667H24.0934C23.6997 13.3609 23.106 12.124 22.3334 11ZM19.9501 11.4034C18.2634 11.9717 16.8334 13.145 15.9901 14.6667H18.6667C18.9967 13.53 19.4001 12.43 19.9501 11.4034ZM24.6984 11.4034C25.2484 12.43 25.6701 13.53 26.0001 14.6667H28.6767C27.8334 13.145 26.3851 11.99 24.6984 11.4034ZM15.2384 16.5C15.0917 17.0867 15.0001 17.6917 15.0001 18.3334C15.0001 18.975 15.0917 19.58 15.2384 20.1667H18.3367C18.2634 19.5617 18.2084 18.9567 18.2084 18.3334C18.2084 17.71 18.2634 17.105 18.3367 16.5H15.2384ZM20.1884 16.5C20.0967 17.0867 20.0417 17.71 20.0417 18.3334C20.0417 18.9567 20.0967 19.5617 20.1884 20.1667H24.4784C24.5517 19.5617 24.6251 18.9567 24.6251 18.3334C24.6251 17.71 24.5517 17.0867 24.4784 16.5H20.1884ZM26.3301 16.5C26.4034 17.105 26.4584 17.71 26.4584 18.3334C26.4584 18.9567 26.4034 19.5617 26.3301 20.1667H29.4284C29.5751 19.58 29.6667 18.975 29.6667 18.3334C29.6667 17.6917 29.5751 17.0867 29.4284 16.5H26.3301ZM15.9901 22C16.8334 23.5217 18.2634 24.6767 19.9501 25.2634C19.4001 24.2367 18.9967 23.155 18.6667 22H15.9901ZM20.5734 22C20.9584 23.32 21.5817 24.53 22.3334 25.6667C23.1034 24.53 23.7084 23.32 24.0934 22H20.5734ZM26.0001 22C25.6701 23.155 25.2484 24.2367 24.6984 25.2634C26.3851 24.6767 27.8334 23.5217 28.6767 22H26.0001ZM11.3334 3.66669C10.3617 3.66669 9.42675 4.05169 8.74842 4.74835C8.05175 5.42669 7.66675 6.36169 7.66675 7.33335V36.6667C7.66675 37.6384 8.05175 38.5734 8.74842 39.2517C9.42675 39.9484 10.3617 40.3334 11.3334 40.3334H27.4667C26.5317 38.72 26.0001 36.8317 26.0001 34.8334H13.1667V31.1667H26.6234C28.1451 26.895 32.2151 23.8334 37.0001 23.8334V7.33335C37.0001 6.36169 36.6151 5.42669 35.9184 4.74835C35.2401 4.05169 34.3051 3.66669 33.3334 3.66669H11.3334ZM22.3334 9.16669C24.7717 9.16669 27.1001 10.1384 28.8234 11.8434C30.5284 13.5667 31.5001 15.895 31.5001 18.3334C31.5001 20.7717 30.5284 23.1 28.8234 24.8234C27.1001 26.5284 24.7717 27.5 22.3334 27.5C19.8951 27.5 17.5667 26.5284 15.8434 24.8234C14.1321 23.0964 13.1704 20.7646 13.1667 18.3334C13.1667 15.895 14.1384 13.5667 15.8434 11.8434C17.5667 10.1384 19.8951 9.16669 22.3334 9.16669Z" fill="#237D96"/>
<path d="M38.8334 27.5H33.8334L29.6667 34.5H33.8334L32.5834 40.3333L38.8334 32.1667H35.5001L38.8334 27.5Z" fill="#E5CC41"/>
</svg>
