<svg width="45" height="44" viewBox="0 0 45 44" fill="none" xmlns="http://www.w3.org/2000/svg">
<path d="M22.6667 39.4167C20.1917 37.8583 15.7 36.6667 12.5833 36.6667C9.55833 36.6667 6.44167 37.2167 3.875 38.5917C3.69167 38.6833 3.6 38.6833 3.41667 38.6833C2.95833 38.6833 2.5 38.225 2.5 37.7667V11C3.6 10.175 4.79167 9.625 6.16667 9.16667C8.20167 8.525 10.4383 8.25 12.5833 8.25C16.1583 8.25 20.0083 8.98333 22.6667 11C25.325 8.98333 29.175 8.25 32.75 8.25C34.895 8.25 37.1317 8.525 39.1667 9.16667C40.5417 9.625 41.7333 10.175 42.8333 11V37.7667C42.8333 38.225 42.375 38.6833 41.9167 38.6833C41.7333 38.6833 41.6417 38.6833 41.4583 38.5917C38.8917 37.2167 35.775 36.6667 32.75 36.6667C29.6333 36.6667 25.1417 37.8583 22.6667 39.4167ZM22.6667 14.6667V35.75C25.1417 34.1917 29.6333 33 32.75 33C34.95 33 37.15 33.275 39.1667 33.9167V12.8333C37.15 12.1917 34.95 11.9167 32.75 11.9167C29.6333 11.9167 25.1417 13.1083 22.6667 14.6667Z" fill="#237D96"/>
<path d="M32.75 19.25C29.2667 19.25 26.535 19.8367 24.5 21.0833V18.04C26.755 17.0133 29.505 16.5 32.75 16.5C34.1983 16.5 35.7383 16.6467 37.3333 16.9217V19.7633C35.9767 19.415 34.4183 19.25 32.75 19.25Z" fill="#E5CC41"/>
<path d="M24.5 22.8433C26.865 21.8717 29.615 21.395 32.75 21.395C34.1983 21.395 35.7383 21.5233 37.3333 21.8167V24.5667C36.1967 24.2733 34.6567 24.1267 32.75 24.1267C29.2667 24.1267 26.535 24.75 24.5 25.9417V22.8433Z" fill="#E5CC41"/>
<path d="M32.75 26.2717C34.1983 26.2717 35.7383 26.4183 37.3333 26.7117V29.4617C36.1967 29.1683 34.6567 29.0217 32.75 29.0217C29.2667 29.0217 26.535 29.6267 24.5 30.8367V27.7383C26.645 26.7667 29.395 26.2717 32.75 26.2717Z" fill="#E5CC41"/>
</svg>
