<svg width="25" height="24" viewBox="0 0 25 24" fill="none" xmlns="http://www.w3.org/2000/svg">
<path d="M13.76 20.74L12.5 22L11 20.5L9.5 22L8 20.5L6.5 22L5 20.5L3.5 22V2L5 3.5L6.5 2L8 3.5L9.5 2L11 3.5L12.5 2L14 3.5L15.5 2L17 3.5L18.5 2L20 3.5L21.5 2V13.35C20.87 13.13 20.2 13 19.5 13V5H5.5V19H13.5C13.5 19.57 13.6 20.22 13.76 20.74ZM6.5 15V17H13.85C14.11 16.25 14.5 15.58 15.04 15H6.5ZM6.5 13H18.5V11H6.5V13ZM6.5 9H18.5V7H6.5V9ZM23.5 17.23L22.34 15.82L18.75 19.41L17.16 17.82L16 19L18.75 22" fill="white"/>
</svg>
