<svg width="44" height="44" viewBox="0 0 44 44" fill="none" xmlns="http://www.w3.org/2000/svg">
<path d="M11 3.66669C10.0276 3.66669 9.09495 4.053 8.40732 4.74063C7.71968 5.42826 7.33337 6.36089 7.33337 7.33335V36.6667C7.33337 37.6391 7.71968 38.5718 8.40732 39.2594C9.09495 39.947 10.0276 40.3334 11 40.3334H33C33.9725 40.3334 34.9051 39.947 35.5928 39.2594C36.2804 38.5718 36.6667 37.6391 36.6667 36.6667V7.33335C36.6667 6.36089 36.2804 5.42826 35.5928 4.74063C34.9051 4.053 33.9725 3.66669 33 3.66669H11ZM22 9.16669C24.4312 9.16669 26.7628 10.1325 28.4819 11.8515C30.2009 13.5706 31.1667 15.9022 31.1667 18.3334C31.1667 20.7645 30.2009 23.0961 28.4819 24.8152C26.7628 26.5342 24.4312 27.5 22 27.5C19.5689 27.5 17.2373 26.5342 15.5182 24.8152C13.7991 23.0961 12.8334 20.7645 12.8334 18.3334C12.8334 15.9022 13.7991 13.5706 15.5182 11.8515C17.2373 10.1325 19.5689 9.16669 22 9.16669ZM22 11C21.2484 12.1367 20.625 13.365 20.24 14.6667H23.76C23.3663 13.3609 22.7726 12.124 22 11ZM19.6167 11.4034C17.93 11.9717 16.5 13.145 15.6567 14.6667H18.3334C18.6634 13.53 19.0667 12.43 19.6167 11.4034ZM24.365 11.4034C24.915 12.43 25.3367 13.53 25.6667 14.6667H28.3434C27.5 13.145 26.0517 11.99 24.365 11.4034ZM14.905 16.5C14.7584 17.0867 14.6667 17.6917 14.6667 18.3334C14.6667 18.975 14.7584 19.58 14.905 20.1667H18.0034C17.93 19.5617 17.875 18.9567 17.875 18.3334C17.875 17.71 17.93 17.105 18.0034 16.5H14.905ZM19.855 16.5C19.7634 17.0867 19.7084 17.71 19.7084 18.3334C19.7084 18.9567 19.7634 19.5617 19.855 20.1667H24.145C24.2184 19.5617 24.2917 18.9567 24.2917 18.3334C24.2917 17.71 24.2184 17.0867 24.145 16.5H19.855ZM25.9967 16.5C26.07 17.105 26.125 17.71 26.125 18.3334C26.125 18.9567 26.07 19.5617 25.9967 20.1667H29.095C29.2417 19.58 29.3334 18.975 29.3334 18.3334C29.3334 17.6917 29.2417 17.0867 29.095 16.5H25.9967ZM15.6567 22C16.5 23.5217 17.93 24.6767 19.6167 25.2634C19.0667 24.2367 18.6634 23.155 18.3334 22H15.6567ZM20.24 22C20.625 23.32 21.2484 24.53 22 25.6667C22.77 24.53 23.375 23.32 23.76 22H20.24ZM25.6667 22C25.3367 23.155 24.915 24.2367 24.365 25.2634C26.0517 24.6767 27.5 23.5217 28.3434 22H25.6667ZM12.8334 31.1667H31.1667V34.8334H12.8334V31.1667Z" fill="#237D96"/>
<rect x="12.8334" y="31.1667" width="18.3333" height="3.66667" fill="#E5CC41"/>
</svg>
