<svg width="18" height="18" viewBox="0 0 18 18" fill="none" xmlns="http://www.w3.org/2000/svg">
<path d="M13.125 12.615L14.955 13.6725L14.3925 14.6475L12 13.2675V10.5H13.125V12.615ZM18 12.75C18 15.6525 15.6525 18 12.75 18C9.8475 18 7.5 15.6525 7.5 12.75C7.5 12.495 7.5225 12.2475 7.56 12H1.5V3H15V8.01C16.77 8.8575 18 10.6575 18 12.75ZM8.01 10.5C8.145 10.23 8.2875 9.975 8.46 9.7275C8.3925 9.75 8.325 9.75 8.25 9.75C7.005 9.75 6 8.745 6 7.5C6 6.255 7.005 5.25 8.25 5.25C9.495 5.25 10.5 6.255 10.5 7.5C10.5 7.6875 10.47 7.875 10.425 8.0475C11.13 7.7025 11.9175 7.5 12.75 7.5C13.005 7.5 13.2525 7.5225 13.5 7.56V6C13.1022 6 12.7206 5.84196 12.4393 5.56066C12.158 5.27936 12 4.89782 12 4.5H4.5C4.5 5.3325 3.8325 6 3 6V9C3.39782 9 3.77936 9.15804 4.06066 9.43934C4.34196 9.72064 4.5 10.1022 4.5 10.5H8.01ZM16.5 12.75C16.5 10.68 14.82 9 12.75 9C10.68 9 9 10.68 9 12.75C9 14.82 10.68 16.5 12.75 16.5C14.82 16.5 16.5 14.82 16.5 12.75Z" fill="white"/>
</svg>
